<?xml version="1.0" standalone="no"?>
<!DOCTYPE svg PUBLIC "-//W3C//DTD SVG 20010904//EN"
 "http://www.w3.org/TR/2001/REC-SVG-20010904/DTD/svg10.dtd">
<svg version="1.0" xmlns="http://www.w3.org/2000/svg"
 width="32.000000pt" height="32.000000pt" viewBox="0 0 32.000000 32.000000"
 preserveAspectRatio="xMidYMid meet">

<g transform="translate(0.000000,32.000000) scale(0.100000,-0.100000)"
fill="#000000" stroke="none">
<path d="M80 297 l-45 -11 35 -7 c19 -3 29 -7 23 -8 -19 -2 -16 -38 3 -45 9
-3 37 -6 64 -6 61 0 80 7 80 31 0 11 10 23 22 28 20 7 15 10 -30 20 -62 13
-91 13 -152 -2z m73 -14 c-7 -2 -21 -2 -30 0 -10 3 -4 5 12 5 17 0 24 -2 18
-5z"/>
<path d="M148 113 c6 -2 18 -2 25 0 6 3 1 5 -13 5 -14 0 -19 -2 -12 -5z"/>
<path d="M58 59 c-10 -5 -18 -21 -18 -34 l0 -25 120 0 120 0 0 25 c0 26 -25
45 -59 45 -12 0 -21 -6 -21 -13 0 -8 -9 -22 -20 -32 -19 -17 -21 -17 -40 0
-11 10 -20 24 -20 32 0 15 -37 17 -62 2z"/>
</g>
</svg>
